<?xml version="1.0" standalone="no"?><!DOCTYPE svg PUBLIC "-//W3C//DTD SVG 1.1//EN" "http://www.w3.org/Graphics/SVG/1.1/DTD/svg11.dtd"><svg t="1694510815574" class="icon" viewBox="0 0 1024 1024" version="1.1" xmlns="http://www.w3.org/2000/svg" p-id="3267" xmlns:xlink="http://www.w3.org/1999/xlink" width="200" height="200"><path d="M584.33666 951.268009H116.339894c-21.705192 0-39.368221-14.956004-39.36822-33.402968V85.485629c0-18.446963 17.712025-33.464212 39.36822-33.464212h686.886032c21.705192 0 39.368221 14.956004 39.368221 33.415216v452.354819a26.016833 26.016833 0 1 0 52.021416 0V85.485629C894.627812 38.351555 853.556983 0 803.225926 0H116.339894C66.008837 0 24.950257 38.351555 24.950257 85.485629v832.379412c0 47.134074 41.05858 85.485629 91.389637 85.485629h467.911023a26.041331 26.041331 0 0 0 0-52.021416z" p-id="3268" fill="#ffffff"></path><path d="M745.851705 304.717867a25.992335 25.992335 0 0 0-25.980086-25.980086H199.632956a26.016833 26.016833 0 0 0 0 52.021417h520.128423a26.029082 26.029082 0 0 0 26.090326-26.041331zM199.632956 542.629799a26.016833 26.016833 0 0 0 0 52.033665h346.793112a26.016833 26.016833 0 0 0 0-52.033665z" p-id="3269" fill="#ffffff"></path><path d="M763.661722 599.612052a11.416049 11.416049 0 0 0-11.330306 11.452796l0.269477 54.74069-33.476461 0.183735a11.52629 11.52629 0 0 0 0.134739 23.04033l33.476461-0.183734 0.257228 46.362388-78.111743 0.428714a11.514041 11.514041 0 1 0 0.134739 23.028082l78.099494-0.428715 0.269478 48.50596a90.140241 90.140241 0 1 0 75.208735 153.014254c0.220482-0.183735 0.416465-0.379718 0.612449-0.575703A11.4038 11.4038 0 1 0 813.000612 943.171433l-0.416466 0.428714a67.283645 67.283645 0 1 1 13.890343-74.277812 11.661029 11.661029 0 0 0 2.939756 4.899592 11.452796 11.452796 0 0 0 18.287726-13.241147 90.225984 90.225984 0 0 0-71.534041-54.226233l-0.330722-60.14249-0.379719-69.402719-0.342971-66.279229a11.416049 11.416049 0 0 0-11.452796-11.330306z" fill="#ffffff" p-id="3270"></path><path d="M834.142351 919.07769a11.428298 11.428298 0 1 0 0-16.144155 11.428298 11.428298 0 0 0 0 16.144155z" fill="#ffffff" p-id="3271"></path></svg>